
v 58.397511 25.191458 0.000000
v -58.375389 -23.047266 0.000000
v -63.048679 0.423472 0.000000
v -45.517292 41.437420 0.000000
v -17.749060 5.566507 -61.139263
v -48.065315 2.939575 -42.218048
v 13.157644 -52.333591 -32.300926
v -6.585515 -58.956398 0.000000
v 31.556000 -54.299854 0.000000
v 52.740536 -15.362396 -32.431168
v -60.433376 -7.512420 -18.731840
v -58.452000 16.233618 -20.361408
v -33.536968 21.166063 -50.642178
v -41.864212 34.011261 -34.488319
v -13.796496 36.291149 -50.692993
v -6.614676 61.912373 0.000000
v 38.729576 45.281025 0.000000
v 11.553816 59.628666 0.000000
v 59.052944 8.051800 -19.181650
v 21.972523 48.563393 -35.995201
v 49.632179 32.802174 -24.565376
v 9.983362 22.852690 -58.523392
v -14.933994 57.666855 -22.903233
v -40.831524 -46.120625 0.000000
v -49.897289 -28.502537 -28.134912
v -32.192333 -21.341822 -50.911167
v -24.506992 -48.862812 -33.240383
v 58.213196 -15.118279 0.000000
v -2.935937 -28.042166 -56.472446
v 14.177977 -2.812543 -62.270145
v 30.876127 -25.555799 -49.580288
v 43.649788 -40.005997 -25.751295
v 39.899021 10.904472 -47.410561
v -17.749060 5.566507 61.139263
v -48.065315 2.939575 42.218048
v 13.157644 -52.333591 32.300926
v 52.740536 -15.362396 32.431168
v -60.433376 -7.512420 18.731840
v -58.452000 16.233618 20.361408
v -33.536968 21.166063 50.642178
v -41.864212 34.011261 34.488319
v -13.796496 36.291149 50.692993
v 59.052944 8.051800 19.181650
v 21.972523 48.563393 35.995201
v 49.632179 32.802174 24.565376
v 9.983362 22.852690 58.523392
v -14.933994 57.666855 22.903233
v -49.897289 -28.502537 28.134912
v -32.192333 -21.341822 50.911167
v -24.506992 -48.862812 33.240383
v -2.935937 -28.042166 56.472446
v 14.177977 -2.812543 62.270145
v 30.876127 -25.555799 49.580288
v 43.649788 -40.005997 25.751295
v 39.899021 10.904472 47.410561
v 58.094879 19.591537 14.049216
v 59.028992 -5.940982 14.558328
v 58.094879 19.591537 -14.049215
v 59.028992 -5.940982 -14.558328
v 76.526047 7.726129 -19.181654
v 76.502090 -6.266655 -14.558330
v 75.567978 19.265865 -14.049217
v 75.870605 24.865784 -0.000003
v 75.567978 19.265863 14.049214
v 76.526047 7.726129 19.181646
v 76.502090 -6.266655 14.558326
v 75.686295 -15.443951 -0.000003
v 76.345909 8.462821 -24.469021
v 76.339088 -9.381224 -18.571291
v 74.638992 23.064913 -17.921846
v 74.590172 30.102093 -0.000003
v 74.638992 23.064915 17.921843
v 76.345909 8.462821 24.469013
v 77.211525 -9.167885 18.571285
v 76.094292 -20.893597 1.545878
v 89.342323 9.264383 -24.469017
v 89.335518 -8.579659 -18.571287
v 88.500511 24.078016 -17.921843
v 87.586601 30.903658 0.000000
v 88.500511 24.078020 17.921846
v 89.342339 9.264386 24.469017
v 90.207962 -8.366320 18.571289
v 89.090721 -20.092031 1.545881
v 89.339043 8.144539 0.000007
vt 0.588776 0.776624
vt 0.448156 0.639739
vt 0.667449 0.565053
vt 0.986905 0.607243
vt 0.982275 0.546274
vt 0.994220 0.432248
vt 0.879874 0.599082
vt 0.928837 0.711657
vt 0.785190 0.809211
vt 0.797796 0.868360
vt 0.560715 0.930576
vt 0.811701 0.398853
vt 0.749605 0.703409
vt 0.112035 0.572197
vt 0.159409 0.641545
vt 0.213280 0.749221
vt 0.322753 0.801690
vt 0.262935 0.502781
vt 0.123507 0.514034
vt 0.136295 0.449199
vt 0.496508 0.946297
vt 0.375675 0.898474
vt 0.945200 0.378724
vt 0.699110 0.086907
vt 0.912555 0.237703
vt 0.805144 0.189826
vt 0.462438 0.449974
vt 0.622198 0.300353
vt 0.552528 0.099669
vt 0.386022 0.259246
vt 0.180934 0.261446
vt 0.218894 0.293706
vt 0.159938 0.349757
vt 0.429586 0.053703
vt 0.322620 0.134302
vt 0.667449 0.565053
vt 0.448156 0.639739
vt 0.588776 0.776624
vt 0.982275 0.546274
vt 0.785190 0.809211
vt 0.928837 0.711657
vt 0.879874 0.599082
vt 0.560715 0.930576
vt 0.811701 0.398853
vt 0.749605 0.703409
vt 0.159409 0.641545
vt 0.322753 0.801690
vt 0.262935 0.502781
vt 0.136295 0.449199
vt 0.123507 0.514034
vt 0.945200 0.378724
vt 0.805144 0.189826
vt 0.462438 0.449974
vt 0.622198 0.300353
vt 0.552528 0.099669
vt 0.386022 0.259246
vt 0.218894 0.293706
vt 0.159938 0.349757
vt 0.322620 0.134302
vt 0.054322 0.868605
vt 0.063464 0.827380
vt 0.054322 0.868605
vt 0.048460 0.898325
vt 0.072937 0.784662
vt 0.060856 0.835475
vt 0.060856 0.835475
vt 0.072937 0.784662
vt 0.054322 0.868605
vt 0.054322 0.868605
vt 0.048460 0.898325
vt 0.048460 0.898325
vt 0.054322 0.868605
vt 0.054322 0.868605
vt 0.060856 0.835475
vt 0.060856 0.835475
vt 0.072937 0.784662
vt 0.072937 0.784662
vt 0.083666 0.739536
vt 0.083666 0.739536
vt 0.060856 0.835475
vt 0.072937 0.784662
vt 0.054322 0.868605
vt 0.048460 0.898325
vt 0.054322 0.868605
vt 0.060856 0.835475
vt 0.072937 0.784662
vt 0.083666 0.739536
vt 0.060856 0.835475
vt 0.072937 0.784662
vt 0.060856 0.835475
vt 0.072937 0.784662
vt 0.083666 0.739536
vn -0.119568 0.333344 -0.935193
vn -0.119568 0.333344 -0.935193
vn -0.119568 0.333344 -0.935193
vn -0.979311 -0.194992 -0.054120
vn -0.979311 -0.194992 -0.054120
vn -0.979311 -0.194992 -0.054120
vn -0.782208 0.292901 -0.549873
vn -0.782208 0.292901 -0.549873
vn -0.782208 0.292901 -0.549873
vn -0.915169 0.391188 0.097145
vn -0.915169 0.391188 0.097145
vn -0.915169 0.391188 0.097145
vn -0.792035 0.574123 -0.207516
vn -0.792035 0.574123 -0.207516
vn -0.792035 0.574123 -0.207516
vn -0.983393 0.070580 -0.167201
vn -0.983393 0.070580 -0.167201
vn -0.983393 0.070580 -0.167201
vn -0.891826 0.043514 -0.450280
vn -0.891826 0.043514 -0.450280
vn -0.891826 0.043514 -0.450280
vn -0.388746 0.722536 -0.571681
vn -0.388746 0.722536 -0.571681
vn -0.388746 0.722536 -0.571681
vn -0.584750 0.778080 -0.229477
vn -0.584750 0.778080 -0.229477
vn -0.584750 0.778080 -0.229477
vn -0.526532 -0.040170 -0.849206
vn -0.526532 -0.040170 -0.849206
vn -0.526532 -0.040170 -0.849206
vn -0.531195 0.032105 -0.846641
vn -0.531195 0.032105 -0.846641
vn -0.531195 0.032105 -0.846641
vn -0.730619 0.298570 -0.614046
vn -0.730619 0.298570 -0.614046
vn -0.730619 0.298570 -0.614046
vn -0.263393 0.340735 -0.902510
vn -0.263393 0.340735 -0.902510
vn -0.263393 0.340735 -0.902510
vn -0.443250 0.576200 -0.686675
vn -0.443250 0.576200 -0.686675
vn -0.443250 0.576200 -0.686675
vn 0.714044 0.699058 -0.038204
vn 0.714044 0.699058 -0.038204
vn 0.714044 0.699058 -0.038204
vn 0.541501 0.821825 -0.177146
vn 0.541501 0.821825 -0.177146
vn 0.541501 0.821825 -0.177146
vn 0.552630 0.471402 -0.687299
vn 0.552630 0.471402 -0.687299
vn 0.552630 0.471402 -0.687299
vn 0.915314 0.335621 -0.222619
vn 0.893998 0.348864 -0.281179
vn 0.915314 0.335621 -0.222619
vn 0.915314 0.335621 -0.222619
vn 0.772445 0.260785 -0.579068
vn 0.772445 0.260785 -0.579068
vn 0.772445 0.260785 -0.579068
vn -0.465738 0.884908 0.005140
vn -0.465738 0.884908 0.005140
vn -0.465738 0.884908 0.005140
vn 0.462581 0.876169 -0.135450
vn 0.462581 0.876169 -0.135450
vn 0.462580 0.876170 -0.135450
vn 0.121562 0.967111 -0.223427
vn 0.121562 0.967111 -0.223427
vn 0.121562 0.967111 -0.223427
vn 0.146711 0.956643 -0.251616
vn 0.146711 0.956643 -0.251616
vn 0.146712 0.956643 -0.251616
vn -0.021054 0.792046 -0.610098
vn -0.021054 0.792046 -0.610098
vn -0.021054 0.792046 -0.610098
vn 0.463577 0.451732 -0.762256
vn 0.463577 0.451732 -0.762256
vn 0.463577 0.451732 -0.762256
vn 0.101245 0.628512 -0.771182
vn 0.101245 0.628512 -0.771182
vn 0.101245 0.628512 -0.771182
vn -0.726566 -0.245164 -0.641869
vn -0.726566 -0.245164 -0.641869
vn -0.726566 -0.245164 -0.641869
vn -0.833264 -0.184837 -0.521062
vn -0.833264 -0.184837 -0.521062
vn -0.833264 -0.184837 -0.521062
vn -0.349391 -0.932180 -0.094687
vn -0.349392 -0.932180 -0.094687
vn -0.349391 -0.932180 -0.094687
vn -0.635739 -0.729602 -0.252026
vn -0.635739 -0.729602 -0.252026
vn -0.635739 -0.729602 -0.252026
vn -0.790119 -0.600769 -0.121605
vn -0.790120 -0.600769 -0.121605
vn -0.790119 -0.600769 -0.121605
vn -0.908560 -0.365123 -0.202987
vn -0.908560 -0.365123 -0.202987
vn -0.908560 -0.365123 -0.202987
vn 0.002989 0.144932 -0.989437
vn 0.002989 0.144932 -0.989437
vn 0.002989 0.144932 -0.989437
vn -0.079796 -0.171520 -0.981944
vn -0.079796 -0.171520 -0.981944
vn -0.079796 -0.171520 -0.981944
vn -0.232973 -0.233761 -0.943970
vn -0.232973 -0.233761 -0.943970
vn -0.232973 -0.233761 -0.943970
vn -0.049162 -0.720680 -0.691523
vn -0.049162 -0.720680 -0.691523
vn -0.049162 -0.720680 -0.691523
vn -0.277775 -0.572760 -0.771224
vn -0.277775 -0.572760 -0.771224
vn -0.277775 -0.572760 -0.771224
vn -0.082737 -0.965105 -0.248451
vn -0.082737 -0.965105 -0.248451
vn -0.082737 -0.965105 -0.248451
vn -0.565591 -0.551588 -0.613073
vn -0.565591 -0.551588 -0.613073
vn -0.565591 -0.551588 -0.613073
vn 0.409565 0.196976 -0.890762
vn 0.409565 0.196976 -0.890762
vn 0.409565 0.196976 -0.890762
vn 0.211725 -0.353041 -0.911337
vn 0.211725 -0.353041 -0.911337
vn 0.211725 -0.353041 -0.911337
vn 0.530675 -0.081120 -0.843684
vn 0.530676 -0.081120 -0.843684
vn 0.530675 -0.081120 -0.843684
vn 0.962720 -0.179178 -0.202644
vn 0.962720 -0.179178 -0.202644
vn 0.951022 -0.216849 -0.220303
vn 0.962721 -0.179178 -0.202644
vn 0.786376 0.032653 -0.616885
vn 0.786376 0.032653 -0.616885
vn 0.786376 0.032653 -0.616885
vn 0.120183 -0.984416 -0.128380
vn 0.120183 -0.984416 -0.128380
vn 0.120183 -0.984416 -0.128380
vn 0.200113 -0.621283 -0.757603
vn 0.200113 -0.621283 -0.757603
vn 0.200113 -0.621283 -0.757603
vn 0.794115 -0.606689 0.036190
vn 0.794115 -0.606689 0.036190
vn 0.794115 -0.606689 0.036190
vn 0.897610 -0.387878 -0.209399
vn 0.897610 -0.387878 -0.209399
vn 0.897610 -0.387878 -0.209399
vn 0.673391 -0.414362 -0.612249
vn 0.673391 -0.414362 -0.612249
vn 0.673391 -0.414362 -0.612249
vn 0.404510 -0.669605 -0.622897
vn 0.404510 -0.669605 -0.622897
vn 0.404510 -0.669605 -0.622897
vn 0.411392 -0.865098 -0.286987
vn 0.411392 -0.865098 -0.286987
vn 0.411392 -0.865098 -0.286987
vn 0.645669 -0.114860 -0.754929
vn 0.645669 -0.114860 -0.754929
vn 0.645669 -0.114860 -0.754929
vn -0.119568 0.333344 0.935193
vn -0.119568 0.333344 0.935193
vn -0.119568 0.333344 0.935193
vn -0.979311 -0.194992 0.054120
vn -0.979311 -0.194992 0.054120
vn -0.979311 -0.194992 0.054120
vn -0.782208 0.292901 0.549873
vn -0.782208 0.292901 0.549873
vn -0.782208 0.292901 0.549873
vn -0.915169 0.391188 -0.097145
vn -0.915169 0.391188 -0.097145
vn -0.915169 0.391188 -0.097145
vn -0.792035 0.574123 0.207516
vn -0.792035 0.574123 0.207516
vn -0.792035 0.574123 0.207516
vn -0.983393 0.070580 0.167201
vn -0.983393 0.070580 0.167201
vn -0.983393 0.070580 0.167201
vn -0.891826 0.043514 0.450280
vn -0.891826 0.043514 0.450280
vn -0.891826 0.043514 0.450280
vn -0.388746 0.722536 0.571681
vn -0.388746 0.722536 0.571681
vn -0.388746 0.722536 0.571681
vn -0.584750 0.778080 0.229477
vn -0.584750 0.778080 0.229477
vn -0.584750 0.778080 0.229477
vn -0.526532 -0.040170 0.849206
vn -0.526532 -0.040170 0.849206
vn -0.526532 -0.040170 0.849206
vn -0.531195 0.032105 0.846641
vn -0.531195 0.032105 0.846641
vn -0.531195 0.032105 0.846641
vn -0.730619 0.298570 0.614046
vn -0.730619 0.298570 0.614046
vn -0.730619 0.298570 0.614046
vn -0.263393 0.340735 0.902510
vn -0.263393 0.340735 0.902510
vn -0.263393 0.340735 0.902510
vn -0.443250 0.576200 0.686675
vn -0.443250 0.576200 0.686675
vn -0.443250 0.576200 0.686675
vn 0.714044 0.699058 0.038204
vn 0.714044 0.699058 0.038204
vn 0.714044 0.699058 0.038204
vn 0.541501 0.821825 0.177146
vn 0.541501 0.821825 0.177146
vn 0.541501 0.821825 0.177146
vn 0.552630 0.471402 0.687299
vn 0.552630 0.471402 0.687299
vn 0.552630 0.471402 0.687299
vn 0.915314 0.335621 0.222619
vn 0.893998 0.348864 0.281179
vn 0.915314 0.335621 0.222619
vn 0.915314 0.335621 0.222619
vn 0.772445 0.260785 0.579068
vn 0.772445 0.260785 0.579068
vn 0.772445 0.260785 0.579068
vn -0.465738 0.884908 -0.005140
vn -0.465738 0.884908 -0.005140
vn -0.465738 0.884908 -0.005140
vn 0.462580 0.876170 0.135450
vn 0.462581 0.876169 0.135450
vn 0.462581 0.876169 0.135450
vn 0.121562 0.967111 0.223427
vn 0.121562 0.967111 0.223427
vn 0.121562 0.967111 0.223427
vn 0.146711 0.956643 0.251616
vn 0.146712 0.956643 0.251616
vn 0.146711 0.956643 0.251616
vn -0.021054 0.792046 0.610098
vn -0.021054 0.792046 0.610098
vn -0.021054 0.792046 0.610098
vn 0.463577 0.451732 0.762256
vn 0.463577 0.451732 0.762256
vn 0.463577 0.451732 0.762256
vn 0.101245 0.628512 0.771182
vn 0.101245 0.628512 0.771182
vn 0.101245 0.628512 0.771182
vn -0.726566 -0.245164 0.641869
vn -0.726566 -0.245164 0.641869
vn -0.726566 -0.245164 0.641869
vn -0.833264 -0.184837 0.521062
vn -0.833264 -0.184837 0.521062
vn -0.833264 -0.184837 0.521062
vn -0.349391 -0.932180 0.094687
vn -0.349392 -0.932180 0.094687
vn -0.349391 -0.932180 0.094687
vn -0.635739 -0.729602 0.252026
vn -0.635739 -0.729602 0.252026
vn -0.635739 -0.729602 0.252026
vn -0.790119 -0.600769 0.121605
vn -0.790120 -0.600769 0.121605
vn -0.790119 -0.600769 0.121605
vn -0.908560 -0.365123 0.202987
vn -0.908560 -0.365123 0.202987
vn -0.908560 -0.365123 0.202987
vn 0.002989 0.144932 0.989437
vn 0.002989 0.144932 0.989437
vn 0.002989 0.144932 0.989437
vn -0.079796 -0.171520 0.981944
vn -0.079796 -0.171520 0.981944
vn -0.079796 -0.171520 0.981944
vn -0.232973 -0.233761 0.943970
vn -0.232973 -0.233761 0.943970
vn -0.232973 -0.233761 0.943970
vn -0.049162 -0.720680 0.691523
vn -0.049162 -0.720680 0.691523
vn -0.049162 -0.720680 0.691523
vn -0.277775 -0.572760 0.771224
vn -0.277775 -0.572760 0.771224
vn -0.277775 -0.572760 0.771224
vn -0.082737 -0.965105 0.248451
vn -0.082737 -0.965105 0.248451
vn -0.082737 -0.965105 0.248451
vn -0.565591 -0.551588 0.613073
vn -0.565591 -0.551588 0.613073
vn -0.565591 -0.551588 0.613073
vn 0.409565 0.196976 0.890762
vn 0.409565 0.196976 0.890762
vn 0.409565 0.196976 0.890762
vn 0.211725 -0.353041 0.911337
vn 0.211725 -0.353041 0.911337
vn 0.211725 -0.353041 0.911337
vn 0.530676 -0.081120 0.843684
vn 0.530676 -0.081120 0.843684
vn 0.530675 -0.081120 0.843684
vn 0.962721 -0.179178 0.202644
vn 0.962721 -0.179178 0.202644
vn 0.951022 -0.216849 0.220303
vn 0.962720 -0.179178 0.202644
vn 0.786376 0.032653 0.616885
vn 0.786376 0.032653 0.616885
vn 0.786376 0.032653 0.616885
vn 0.120183 -0.984416 0.128380
vn 0.120183 -0.984416 0.128380
vn 0.120183 -0.984416 0.128380
vn 0.200113 -0.621283 0.757603
vn 0.200113 -0.621283 0.757603
vn 0.200113 -0.621283 0.757603
vn 0.794115 -0.606689 -0.036190
vn 0.794115 -0.606689 -0.036190
vn 0.794115 -0.606689 -0.036190
vn 0.897610 -0.387878 0.209399
vn 0.897610 -0.387878 0.209399
vn 0.897610 -0.387878 0.209399
vn 0.673391 -0.414362 0.612249
vn 0.673391 -0.414362 0.612249
vn 0.673391 -0.414362 0.612249
vn 0.404510 -0.669605 0.622897
vn 0.404510 -0.669605 0.622897
vn 0.404510 -0.669605 0.622897
vn 0.411392 -0.865098 0.286987
vn 0.411392 -0.865098 0.286987
vn 0.411392 -0.865098 0.286987
vn 0.645669 -0.114860 0.754929
vn 0.645669 -0.114860 0.754929
vn 0.645670 -0.114860 0.754929
vn 0.997952 0.063957 -0.001340
vn 0.999435 0.032701 -0.007820
vn 0.997049 0.076773 0.000000
vn 0.998766 0.049652 0.000690
vn -0.005847 -0.313713 -0.949500
vn -0.005847 -0.313713 -0.949500
vn -0.005847 -0.313713 -0.949500
vn -0.005847 -0.313713 -0.949500
vn 0.007583 0.406895 -0.913444
vn 0.007583 0.406895 -0.913444
vn 0.007583 0.406895 -0.913444
vn 0.007583 0.406895 -0.913444
vn 0.017309 0.928659 -0.370530
vn 0.017309 0.928659 -0.370530
vn 0.017309 0.928659 -0.370530
vn 0.017309 0.928659 -0.370530
vn 0.017309 0.928659 0.370530
vn 0.017309 0.928659 0.370530
vn 0.017309 0.928659 0.370530
vn 0.017309 0.928659 0.370530
vn 0.007584 0.406895 0.913444
vn 0.007584 0.406895 0.913444
vn 0.007584 0.406895 0.913444
vn 0.007584 0.406895 0.913444
vn -0.005847 -0.313712 0.949500
vn -0.005847 -0.313712 0.949500
vn -0.005847 -0.313712 0.949500
vn -0.005847 -0.313712 0.949500
vn -0.015758 -0.845443 0.533834
vn -0.015758 -0.845443 0.533834
vn -0.015758 -0.845443 0.533834
vn -0.015758 -0.845443 0.533834
vn -0.015758 -0.845443 -0.533834
vn -0.015758 -0.845443 -0.533834
vn -0.015758 -0.845443 -0.533834
vn -0.015758 -0.845443 -0.533834
vn -0.999356 0.012127 0.033773
vn -0.999356 0.012127 0.033773
vn -0.999356 0.012127 0.033773
vn -0.999356 0.012127 0.033773
vn -0.990308 -0.126535 0.057255
vn -0.990308 -0.126535 0.057255
vn -0.990308 -0.126535 0.057255
vn -0.990308 -0.126535 0.057255
vn -0.975660 -0.201177 0.087264
vn -0.975660 -0.201177 0.087264
vn -0.975660 -0.201177 0.087264
vn -0.975660 -0.201177 0.087264
vn -0.975660 -0.201177 -0.087264
vn -0.975660 -0.201177 -0.087264
vn -0.975660 -0.201177 -0.087264
vn -0.975660 -0.201177 -0.087264
vn -0.990308 -0.126536 -0.057253
vn -0.990308 -0.126536 -0.057253
vn -0.990308 -0.126536 -0.057253
vn -0.990308 -0.126536 -0.057253
vn -0.998004 -0.042192 0.046980
vn -0.998004 -0.042192 0.046980
vn -0.998004 -0.042192 0.046980
vn -0.998004 -0.042192 0.046980
vn -0.992592 -0.064129 0.103192
vn -0.992592 -0.064129 0.103192
vn -0.992592 -0.064129 0.103192
vn -0.992592 -0.064129 0.103192
vn -0.999032 -0.016876 -0.040627
vn -0.999032 -0.016876 -0.040627
vn -0.999032 -0.016876 -0.040627
vn -0.999032 -0.016876 -0.040627
vn 0.019352 -0.313767 -0.949303
vn 0.019352 -0.313767 -0.949303
vn 0.019352 -0.313767 -0.949303
vn 0.019352 -0.313767 -0.949303
vn -0.027333 0.404546 -0.914109
vn -0.027333 0.404546 -0.914109
vn -0.027333 0.404546 -0.914109
vn -0.027333 0.404546 -0.914109
vn -0.062853 0.930261 -0.361474
vn -0.062853 0.930261 -0.361474
vn -0.062853 0.930261 -0.361474
vn -0.062853 0.930261 -0.361474
vn -0.062854 0.930261 0.361474
vn -0.062854 0.930261 0.361474
vn -0.062854 0.930261 0.361474
vn -0.062854 0.930261 0.361474
vn -0.027334 0.404546 0.914109
vn -0.027334 0.404546 0.914109
vn -0.027334 0.404546 0.914109
vn -0.027334 0.404546 0.914109
vn 0.019508 -0.316314 0.948454
vn 0.019508 -0.316314 0.948454
vn 0.019508 -0.316314 0.948454
vn 0.019508 -0.316314 0.948454
vn 0.050824 -0.824063 0.564213
vn 0.050824 -0.824063 0.564213
vn 0.050824 -0.824063 0.564213
vn 0.050824 -0.824063 0.564213
vn 0.053471 -0.866969 -0.495486
vn 0.053472 -0.866969 -0.495486
vn 0.053472 -0.866969 -0.495486
vn 0.053472 -0.866969 -0.495486
vn 0.999902 0.004638 -0.013211
vn 0.999673 0.025534 0.001303
vn 0.999435 0.032701 -0.007820
vn 0.998766 0.049652 0.000690
vn 0.999775 0.014936 -0.015086
vn 0.999435 0.032701 -0.007820
vn 0.998618 0.052504 -0.002537
vn 0.997952 0.063957 -0.001340
vn 0.999902 0.004638 -0.013211
vn 0.999435 0.032701 -0.007820
vn 0.999675 -0.010074 -0.023423
vn 0.999775 0.014936 -0.015086
s off
g shootEnemy:Mesh
usemtl initialShadingGroup
f 15/1/1 22/2/2 5/3/3
f 3/4/4 11/5/5 2/6/6
f 6/7/7 12/8/8 14/9/9
f 4/10/10 12/8/11 3/4/12
f 4/10/13 14/9/14 12/8/15
f 3/4/16 12/8/17 11/5/18
f 12/8/19 6/7/20 11/5/21
f 14/9/22 23/11/23 15/1/24
f 4/10/25 23/11/26 14/9/27
f 5/3/28 26/12/29 6/7/30
f 13/13/31 5/3/32 6/7/33
f 6/7/34 14/9/35 13/13/36
f 13/13/37 15/1/38 5/3/39
f 13/13/40 14/9/41 15/1/42
f 1/14/43 21/15/44 17/16/45
f 17/16/46 21/15/47 20/17/48
f 21/15/49 33/18/50 20/17/51
s 1
f 1/14/52 58/19/53 21/15/54
f 21/15/54 58/19/53 19/20/55
s off
f 21/15/56 19/20/57 33/18/58
f 4/10/59 16/21/60 23/11/61
f 18/22/62 17/16/63 20/17/64
f 16/21/65 18/22/66 23/11/67
f 18/22/68 20/17/69 23/11/70
f 15/1/71 23/11/72 20/17/73
f 22/2/74 20/17/75 33/18/76
f 15/1/77 20/17/78 22/2/79
f 6/7/80 26/12/81 25/23/82
f 11/5/83 6/7/84 25/23/85
f 8/24/86 24/25/87 27/26/88
f 24/25/89 25/23/90 27/26/91
f 2/6/92 25/23/93 24/25/94
f 2/6/95 11/5/96 25/23/97
f 22/2/98 30/27/99 5/3/100
f 30/27/101 29/28/102 5/3/103
f 29/28/104 26/12/105 5/3/106
f 7/29/107 27/26/108 29/28/109
f 27/26/110 26/12/111 29/28/112
f 8/24/113 27/26/114 7/29/115
f 27/26/116 25/23/117 26/12/118
f 33/18/119 30/27/120 22/2/121
f 29/28/122 30/27/123 31/30/124
f 31/30/125 30/27/126 33/18/127
s 2
f 28/31/128 10/32/129 59/33/130
f 59/33/130 10/32/129 19/20/131
s off
f 19/20/132 10/32/133 33/18/134
f 8/24/135 7/29/136 9/34/137
f 7/29/138 29/28/139 31/30/140
f 9/34/141 32/35/142 28/31/143
f 28/31/144 32/35/145 10/32/146
f 10/32/147 32/35/148 31/30/149
f 31/30/150 32/35/151 7/29/152
f 9/34/153 7/29/154 32/35/155
f 10/32/156 31/30/157 33/18/158
f 34/36/159 46/37/160 42/38/161
f 2/6/162 38/39/163 3/4/164
f 41/40/165 39/41/166 35/42/167
f 3/4/168 39/41/169 4/10/170
f 39/41/171 41/40/172 4/10/173
f 38/39/174 39/41/175 3/4/176
f 38/39/177 35/42/178 39/41/179
f 42/38/180 47/43/181 41/40/182
f 41/40/183 47/43/184 4/10/185
f 35/42/186 49/44/187 34/36/188
f 35/42/189 34/36/190 40/45/191
f 40/45/192 41/40/193 35/42/194
f 34/36/195 42/38/196 40/45/197
f 42/38/198 41/40/199 40/45/200
f 17/16/201 45/46/202 1/14/203
f 44/47/204 45/46/205 17/16/206
f 44/47/207 55/48/208 45/46/209
s 3
f 43/49/210 56/50/211 45/46/212
f 45/46/212 56/50/211 1/14/213
s off
f 55/48/214 43/49/215 45/46/216
f 47/43/217 16/21/218 4/10/219
f 44/47/220 17/16/221 18/22/222
f 47/43/223 18/22/224 16/21/225
f 47/43/226 44/47/227 18/22/228
f 44/47/229 47/43/230 42/38/231
f 55/48/232 44/47/233 46/37/234
f 46/37/235 44/47/236 42/38/237
f 48/51/238 49/44/239 35/42/240
f 48/51/241 35/42/242 38/39/243
f 50/52/244 24/25/245 8/24/246
f 50/52/247 48/51/248 24/25/249
f 24/25/250 48/51/251 2/6/252
f 48/51/253 38/39/254 2/6/255
f 34/36/256 52/53/257 46/37/258
f 34/36/259 51/54/260 52/53/261
f 34/36/262 49/44/263 51/54/264
f 51/54/265 50/52/266 36/55/267
f 51/54/268 49/44/269 50/52/270
f 36/55/271 50/52/272 8/24/273
f 49/44/274 48/51/275 50/52/276
f 46/37/277 52/53/278 55/48/279
f 53/56/280 52/53/281 51/54/282
f 55/48/283 52/53/284 53/56/285
s 4
f 43/49/286 37/57/287 57/58/288
f 57/58/288 37/57/287 28/31/289
s off
f 55/48/290 37/57/291 43/49/292
f 9/34/293 36/55/294 8/24/295
f 53/56/296 51/54/297 36/55/298
f 28/31/299 54/59/300 9/34/301
f 37/57/302 54/59/303 28/31/304
f 53/56/305 54/59/306 37/57/307
f 36/55/308 54/59/309 53/56/310
f 54/59/311 36/55/312 9/34/313
f 55/48/314 53/56/315 37/57/316
s 5
f 80/60/317 84/61/318 79/63/319
f 79/63/319 84/61/318 78/62/320
s 6
f 19/65/321 60/66/322 59/64/323
f 59/64/323 60/66/322 61/67/324
s 7
f 58/68/325 62/69/326 19/65/327
f 19/65/327 62/69/326 60/66/328
s 8
f 58/68/329 1/70/330 62/69/331
f 62/69/331 1/70/330 63/71/332
s 9
f 56/72/333 64/73/334 1/70/335
f 1/70/335 64/73/334 63/71/336
s 10
f 56/72/337 43/74/338 64/73/339
f 64/73/339 43/74/338 65/75/340
s 11
f 43/74/341 57/76/342 65/75/343
f 65/75/343 57/76/342 66/77/344
s 12
f 28/78/345 67/79/346 57/76/347
f 57/76/347 67/79/346 66/77/348
s 13
f 28/78/349 59/64/350 67/79/351
f 67/79/351 59/64/350 61/67/352
s 14
f 61/67/353 60/66/354 69/81/355
f 69/81/355 60/66/354 68/80/356
s 15
f 60/66/357 62/69/358 68/80/359
f 68/80/359 62/69/358 70/82/360
s 16
f 63/71/361 71/83/362 62/69/363
f 62/69/363 71/83/362 70/82/364
s 17
f 63/71/365 64/73/366 71/83/367
f 71/83/367 64/73/366 72/84/368
s 18
f 65/75/369 73/85/370 64/73/371
f 64/73/371 73/85/370 72/84/372
s 19
f 66/77/373 74/86/374 65/75/375
f 65/75/375 74/86/374 73/85/376
s 20
f 67/79/377 75/87/378 66/77/379
f 66/77/379 75/87/378 74/86/380
s 21
f 61/67/381 69/81/382 67/79/383
f 67/79/383 69/81/382 75/87/384
s 22
f 69/81/385 68/80/386 77/89/387
f 77/89/387 68/80/386 76/88/388
s 23
f 70/82/389 78/62/390 68/80/391
f 68/80/391 78/62/390 76/88/392
s 24
f 71/83/393 79/63/394 70/82/395
f 70/82/395 79/63/394 78/62/396
s 25
f 71/83/397 72/84/398 79/63/399
f 79/63/399 72/84/398 80/60/400
s 26
f 72/84/401 73/85/402 80/60/403
f 80/60/403 73/85/402 81/90/404
s 27
f 74/86/405 82/91/406 73/85/407
f 73/85/407 82/91/406 81/90/408
s 28
f 75/87/409 83/92/410 74/86/411
f 74/86/411 83/92/410 82/91/412
s 29
f 75/87/413 69/81/414 83/92/415
f 83/92/415 69/81/414 77/89/416
s 30
f 77/89/417 76/88/418 84/61/419
f 84/61/419 76/88/418 78/62/420
s 31
f 82/91/421 84/61/422 81/90/423
f 81/90/423 84/61/422 80/60/424
s 32
f 77/89/425 84/61/426 83/92/427
f 83/92/427 84/61/426 82/91/428
