# This file uses centimeters as units for non-parametric coordinates.

mtllib fan.mtl
g default
v -2.644452 -0.219340 2.676995
v 2.644452 -0.219340 2.676995
v -2.644452 48.863171 2.676995
v 2.644452 48.863171 2.676995
v -2.644452 48.863171 -2.611909
v 2.644452 48.863171 -2.611909
v -2.644452 -0.219340 -2.611909
v 2.644452 -0.219340 -2.611909
v 2.644452 45.873394 2.676995
v -2.644452 45.873394 2.676995
v -2.644452 45.873394 -2.611909
v 2.644452 45.873394 -2.611909
v 2.644452 41.616268 2.676995
v -2.644452 41.616268 2.676995
v -2.644452 41.616268 -2.611909
v 2.644452 41.616268 -2.611909
v 37.644451 32.008938 0.032543
v 37.644451 55.480709 0.032543
v 0.000000 55.129116 -37.611877
v 0.000000 32.360516 -37.611877
v -37.644451 32.008938 0.032543
v -37.644451 55.480709 0.032543
v 0.000000 32.360516 37.677010
v 0.000000 55.129116 37.677010
vt 0.375000 0.000000
vt 0.625000 0.000000
vt 0.625000 0.224118
vt 0.375000 0.224118
vt 0.375000 0.250000
vt 0.625000 0.250000
vt 0.625000 0.500000
vt 0.375000 0.500000
vt 0.375000 0.525882
vt 0.625000 0.525882
vt 0.625000 0.750000
vt 0.375000 0.750000
vt 0.625000 1.000000
vt 0.375000 1.000000
vt 0.875000 0.000000
vt 0.875000 0.224118
vt 0.125000 0.000000
vt 0.125000 0.224118
vt 0.375000 0.239322
vt 0.625000 0.239322
vt 0.125000 0.239322
vt 0.125000 0.250000
vt 0.625000 0.510678
vt 0.375000 0.510678
vt 0.875000 0.239322
vt 0.875000 0.250000
vt 0.081278 0.446766
vt 0.331278 0.446766
vt 0.206278 0.446766
vt 0.331278 0.461970
vt 0.206278 0.461970
vt 0.081278 0.461970
vt 0.064214 0.501234
vt 0.314214 0.501234
vt 0.189214 0.501234
vt 0.314214 0.516438
vt 0.189214 0.516438
vt 0.064214 0.516438
vt 0.068263 0.469645
vt 0.318263 0.469645
vt 0.193263 0.469645
vt 0.318263 0.484849
vt 0.193263 0.484849
vt 0.068263 0.484849
vt 0.098302 0.478935
vt 0.348302 0.478935
vt 0.223302 0.478935
vt 0.348302 0.494139
vt 0.223302 0.494139
vt 0.098302 0.494139
vn 0.000000 0.000000 1.000000
vn 0.000000 0.000000 1.000000
vn 0.000000 0.000000 1.000000
vn 0.000000 0.000000 1.000000
vn 0.000000 1.000000 0.000000
vn 0.000000 1.000000 0.000000
vn 0.000000 1.000000 0.000000
vn 0.000000 1.000000 0.000000
vn 0.000000 0.000000 -1.000000
vn 0.000000 0.000000 -1.000000
vn 0.000000 0.000000 -1.000000
vn 0.000000 0.000000 -1.000000
vn 0.000000 -1.000000 0.000000
vn 0.000000 -1.000000 0.000000
vn 0.000000 -1.000000 0.000000
vn 0.000000 -1.000000 0.000000
vn 1.000000 0.000000 0.000000
vn 1.000000 0.000000 0.000000
vn 1.000000 0.000000 0.000000
vn 1.000000 0.000000 0.000000
vn -1.000000 0.000000 0.000000
vn -1.000000 0.000000 0.000000
vn -1.000000 0.000000 0.000000
vn -1.000000 0.000000 0.000000
vn 0.000000 0.000000 1.000000
vn 0.000000 0.000000 1.000000
vn 0.000000 0.000000 1.000000
vn 0.000000 0.000000 1.000000
vn -1.000000 0.000000 0.000000
vn -1.000000 0.000000 0.000000
vn -1.000000 0.000000 0.000000
vn -1.000000 0.000000 0.000000
vn 0.000000 0.000000 -1.000000
vn 0.000000 0.000000 -1.000000
vn 0.000000 0.000000 -1.000000
vn 0.000000 0.000000 -1.000000
vn 1.000000 0.000000 0.000000
vn 1.000000 0.000000 0.000000
vn 1.000000 0.000000 0.000000
vn 1.000000 0.000000 0.000000
vn -0.264704 -0.964330 0.000000
vn -0.264704 -0.964330 0.000000
vn -0.264704 -0.964330 0.000000
vn 0.075341 0.000000 -0.997158
vn 0.075341 0.000000 -0.997158
vn 0.075341 0.000000 -0.997158
vn 0.075341 0.000000 -0.997158
vn -0.264703 0.964330 0.000000
vn -0.264703 0.964330 0.000000
vn -0.264703 0.964330 0.000000
vn 0.075341 0.000000 0.997158
vn 0.075341 0.000000 0.997158
vn 0.075341 0.000000 0.997158
vn 0.075341 0.000000 0.997158
vn 0.000000 0.966767 0.255661
vn 0.000000 0.966767 0.255661
vn 0.000000 0.966767 0.255661
vn 0.997158 0.000000 -0.075341
vn 0.997158 0.000000 -0.075341
vn 0.997158 0.000000 -0.075341
vn 0.997158 0.000000 -0.075341
vn 0.000000 -0.966766 0.255662
vn 0.000000 -0.966766 0.255662
vn 0.000000 -0.966766 0.255662
vn -0.997158 0.000000 -0.075341
vn -0.997158 0.000000 -0.075341
vn -0.997158 0.000000 -0.075341
vn -0.997158 0.000000 -0.075341
vn 0.264704 -0.964330 0.000000
vn 0.264704 -0.964330 0.000000
vn 0.264704 -0.964330 0.000000
vn -0.075341 0.000000 0.997158
vn -0.075341 0.000000 0.997158
vn -0.075341 0.000000 0.997158
vn -0.075341 0.000000 0.997158
vn 0.264703 0.964330 0.000000
vn 0.264703 0.964330 0.000000
vn 0.264703 0.964330 0.000000
vn -0.075341 0.000000 -0.997158
vn -0.075341 0.000000 -0.997158
vn -0.075341 0.000000 -0.997158
vn -0.075341 0.000000 -0.997158
vn 0.000000 -0.966766 -0.255661
vn 0.000000 -0.966766 -0.255661
vn 0.000000 -0.966766 -0.255661
vn 0.997158 0.000000 0.075341
vn 0.997158 0.000000 0.075341
vn 0.997158 0.000000 0.075341
vn 0.997158 0.000000 0.075341
vn 0.000000 0.966767 -0.255661
vn 0.000000 0.966767 -0.255661
vn 0.000000 0.966767 -0.255661
vn -0.997158 0.000000 0.075341
vn -0.997158 0.000000 0.075341
vn -0.997158 0.000000 0.075341
vn -0.997158 0.000000 0.075341
s 1
g pCube1
usemtl initialShadingGroup
f 1/1/1 2/2/2 14/4/3
f 14/4/3 2/2/2 13/3/4
s 2
f 3/5/5 4/6/6 5/8/7
f 5/8/7 4/6/6 6/7/8
s 3
f 15/9/9 16/10/10 7/12/11
f 7/12/11 16/10/10 8/11/12
s 4
f 7/12/13 8/11/14 1/14/15
f 1/14/15 8/11/14 2/13/16
s 5
f 2/2/17 8/15/18 13/3/19
f 13/3/19 8/15/18 16/16/20
s 6
f 7/17/21 1/1/22 15/18/23
f 15/18/23 1/1/22 14/4/24
s 7
f 10/19/25 9/20/26 3/5/27
f 3/5/27 9/20/26 4/6/28
s 8
f 11/21/29 10/19/30 5/22/31
f 5/22/31 10/19/30 3/5/32
s 9
f 5/8/33 6/7/34 11/24/35
f 11/24/35 6/7/34 12/23/36
s 10
f 9/20/37 12/25/38 4/6/39
f 4/6/39 12/25/38 6/26/40
s off
f 13/27/41 16/28/42 17/29/43
s 11
f 16/28/44 12/30/45 17/29/46
f 17/29/46 12/30/45 18/31/47
s off
f 12/30/48 9/32/49 18/31/50
s 12
f 9/32/51 13/27/52 18/31/53
f 18/31/53 13/27/52 17/29/54
s off
f 11/33/55 12/34/56 19/35/57
s 13
f 12/34/58 16/36/59 19/35/60
f 19/35/60 16/36/59 20/37/61
s off
f 16/36/62 15/38/63 20/37/64
s 14
f 15/38/65 11/33/66 20/37/67
f 20/37/67 11/33/66 19/35/68
s off
f 15/39/69 14/40/70 21/41/71
s 15
f 14/40/72 10/42/73 21/41/74
f 21/41/74 10/42/73 22/43/75
s off
f 10/42/76 11/44/77 22/43/78
s 16
f 11/44/79 15/39/80 22/43/81
f 22/43/81 15/39/80 21/41/82
s off
f 14/45/83 13/46/84 23/47/85
s 17
f 13/46/86 9/48/87 23/47/88
f 23/47/88 9/48/87 24/49/89
s off
f 9/48/90 10/50/91 24/49/92
s 18
f 10/50/93 14/45/94 24/49/95
f 24/49/95 14/45/94 23/47/96
